<?xml version="1.0" encoding="UTF-8"?>
<svg id="_Слой_1" data-name="Слой 1" xmlns="http://www.w3.org/2000/svg" viewBox="0 0 1080 1080" className="w-[500px] h-[500px]">
  <defs>
    <style>
      .cls-1 {
        fill: #ff7474;
      }

      .cls-2 {
        fill: #33a4b4;
      }
    </style>
  </defs>
  <path class="cls-1" d="M535.82,526.55v-173.48c0-4.87-3.94-8.81-8.81-8.81s-8.81,3.94-8.81,8.81v173.48c-10.99,3.68-18.92,14.04-18.92,26.28,0,15.31,12.41,27.73,27.73,27.73s27.73-12.41,27.73-27.73c0-12.23-7.93-22.59-18.92-26.28Z"/>
  <path class="cls-2" d="M561.79,502.44v-163.68c0-9.23-3.59-17.9-10.11-24.4-6.52-6.52-15.18-10.11-24.4-10.11-19.03,0-34.5,15.48-34.5,34.5v163.28c-16.23,11.2-26.12,29.79-26.12,49.7,0,33.27,27.07,60.34,60.34,60.34s60.34-27.07,60.34-60.34c0-19.62-9.67-38.07-25.56-49.3Zm-34.79,92.03c-23.56,0-42.73-19.17-42.73-42.73,0-15.35,8.3-29.59,21.66-37.18,2.76-1.57,4.46-4.49,4.46-7.66v-168.14c0-9.31,7.58-16.89,16.89-16.89,4.51,0,8.75,1.76,11.95,4.96,3.19,3.18,4.94,7.42,4.94,11.93v168.47c0,3.13,1.66,6.02,4.36,7.6,13.07,7.64,21.19,21.78,21.19,36.91,0,23.56-19.17,42.73-42.73,42.73Z"/>
  <path class="cls-2" d="M703.31,463.85h-35.85l15.64-15.64c3.42-3.42,3.42-8.96,0-12.37-3.42-3.42-8.96-3.42-12.37,0l-28.01,28.01h-68.8l48.65-48.65h39.61c4.83,0,8.75-3.92,8.75-8.75s-3.92-8.75-8.75-8.75h-22.11l25.35-25.35c3.42-3.42,3.42-8.96,0-12.37-3.42-3.42-8.96-3.42-12.37,0l-25.35,25.35v-22.12c0-4.83-3.92-8.75-8.75-8.75s-8.75,3.92-8.75,8.75v39.61l-48.65,48.65v-68.8l28.01-28.01c3.42-3.42,3.42-8.96,0-12.37-3.42-3.42-8.96-3.42-12.37,0l-15.64,15.64v-23.58c0-4.83-3.92-8.75-8.75-8.75s-8.75,3.92-8.75,8.75v44.7h0v93.54c0,.29,.01,.59,.04,.88,.01,.13,.04,.25,.05,.37,.02,.16,.04,.32,.07,.48,.03,.14,.07,.28,.1,.43,.03,.14,.06,.27,.1,.41,.04,.14,.09,.27,.14,.41,.05,.13,.09,.27,.14,.4,.05,.13,.12,.25,.17,.38,.06,.13,.12,.27,.19,.4,.06,.12,.14,.24,.21,.35,.08,.13,.15,.26,.23,.38,.09,.13,.18,.25,.28,.38,.08,.1,.15,.21,.23,.31,.17,.21,.36,.41,.55,.61,.01,.01,.02,.02,.03,.04l63.59,63.58v39.61c0,4.83,3.92,8.75,8.75,8.75s8.75-3.92,8.75-8.75v-22.11l25.35,25.35c1.71,1.71,3.95,2.56,6.19,2.56s4.48-.85,6.19-2.56c3.42-3.42,3.42-8.96,0-12.37l-25.35-25.35h22.12c4.83,0,8.75-3.92,8.75-8.75s-3.92-8.75-8.75-8.75h-39.61l-48.65-48.65h68.8l28.01,28.01c1.71,1.71,3.95,2.56,6.19,2.56s4.48-.85,6.19-2.56c3.42-3.42,3.42-8.96,0-12.37l-15.64-15.64h35.85c4.83,0,8.75-3.92,8.75-8.75s-3.92-8.75-8.75-8.75Z"/>
  <g>
    <g>
      <path class="cls-2" d="M238.19,738.17v20.64h-2.7v-9.36h-10.51v9.36h-2.7v-20.64h2.7v9.06h10.51v-9.06h2.7Z"/>
      <path class="cls-2" d="M251.4,740.36v6.9h7.52v2.22h-7.52v7.11h8.41v2.22h-11.11v-20.67h11.11v2.22h-8.41Z"/>
      <path class="cls-2" d="M282.02,754.22h-9l-1.66,4.59h-2.84l7.46-20.53h3.11l7.43,20.53h-2.84l-1.66-4.59Zm-.77-2.19l-3.73-10.43-3.73,10.43h7.46Z"/>
      <path class="cls-2" d="M308.41,738.17v2.19h-5.63v18.45h-2.7v-18.45h-5.66v-2.19h13.98Z"/>
      <path class="cls-2" d="M320.35,738.17v20.64h-2.7v-20.64h2.7Z"/>
      <path class="cls-2" d="M347.09,758.81h-2.7l-10.84-16.44v16.44h-2.7v-20.67h2.7l10.84,16.41v-16.41h2.7v20.67Z"/>
      <path class="cls-2" d="M373.25,744.15c-.57-1.2-1.4-2.14-2.49-2.8-1.09-.66-2.35-.99-3.79-.99s-2.74,.33-3.89,.99c-1.16,.66-2.06,1.61-2.73,2.84-.66,1.23-.99,2.66-.99,4.28s.33,3.04,.99,4.26c.66,1.22,1.57,2.17,2.73,2.83,1.15,.66,2.45,.99,3.89,.99,2.01,0,3.67-.6,4.98-1.81s2.06-2.83,2.28-4.89h-8.23v-2.19h11.11v2.07c-.16,1.7-.69,3.25-1.6,4.67-.91,1.41-2.1,2.53-3.58,3.35-1.48,.82-3.13,1.23-4.95,1.23-1.92,0-3.66-.45-5.24-1.35-1.58-.9-2.83-2.15-3.75-3.75-.92-1.6-1.38-3.41-1.38-5.42s.46-3.83,1.38-5.44c.92-1.61,2.17-2.86,3.75-3.76,1.58-.9,3.33-1.35,5.24-1.35,2.19,0,4.13,.54,5.82,1.63s2.92,2.62,3.69,4.59h-3.23Z"/>
      <path class="cls-2" d="M412.61,754.22h-9l-1.66,4.59h-2.84l7.46-20.53h3.11l7.43,20.53h-2.84l-1.66-4.59Zm-.77-2.19l-3.73-10.43-3.73,10.43h7.46Z"/>
      <path class="cls-2" d="M442.53,758.81h-2.7l-10.84-16.44v16.44h-2.7v-20.67h2.7l10.84,16.41v-16.41h2.7v20.67Z"/>
      <path class="cls-2" d="M465.32,739.42c1.65,.84,2.91,2.04,3.79,3.6,.88,1.56,1.32,3.4,1.32,5.51s-.44,3.95-1.32,5.5c-.88,1.55-2.14,2.73-3.79,3.55-1.65,.82-3.6,1.23-5.85,1.23h-6.43v-20.64h6.43c2.25,0,4.2,.42,5.85,1.26Zm.25,15.05c1.4-1.41,2.1-3.39,2.1-5.94s-.71-4.57-2.12-6.01c-1.41-1.44-3.44-2.16-6.09-2.16h-3.73v16.23h3.73c2.67,0,4.7-.71,6.1-2.12Z"/>
      <path class="cls-2" d="M505.94,754.22h-9l-1.66,4.59h-2.84l7.46-20.53h3.11l7.43,20.53h-2.84l-1.66-4.59Zm-.77-2.19l-3.73-10.43-3.73,10.43h7.46Z"/>
      <path class="cls-2" d="M522.32,738.17v20.64h-2.7v-20.64h2.7Z"/>
      <path class="cls-2" d="M543.71,758.81l-4.92-8.44h-3.26v8.44h-2.7v-20.64h6.66c1.56,0,2.88,.27,3.95,.8,1.08,.53,1.88,1.25,2.41,2.16s.8,1.95,.8,3.11c0,1.42-.41,2.68-1.23,3.76s-2.05,1.81-3.69,2.16l5.18,8.65h-3.23Zm-8.18-10.6h3.97c1.46,0,2.56-.36,3.29-1.08s1.1-1.68,1.1-2.89-.36-2.17-1.08-2.84c-.72-.67-1.82-1.01-3.3-1.01h-3.97v7.82Z"/>
      <path class="cls-2" d="M570.95,743.04c.91-1.61,2.15-2.87,3.72-3.78,1.57-.91,3.31-1.36,5.23-1.36,2.25,0,4.22,.54,5.89,1.63,1.68,1.09,2.9,2.63,3.67,4.62h-3.23c-.57-1.24-1.4-2.2-2.47-2.87-1.08-.67-2.37-1.01-3.87-1.01s-2.74,.34-3.88,1.01c-1.15,.67-2.04,1.62-2.7,2.86-.65,1.23-.98,2.68-.98,4.34s.33,3.08,.98,4.31,1.55,2.19,2.7,2.86c1.14,.67,2.44,1.01,3.88,1.01s2.79-.33,3.87-.99c1.08-.66,1.9-1.61,2.47-2.86h3.23c-.77,1.97-2,3.5-3.67,4.58-1.68,1.08-3.64,1.61-5.89,1.61-1.92,0-3.66-.45-5.23-1.35-1.57-.9-2.81-2.15-3.72-3.75s-1.36-3.41-1.36-5.42,.45-3.83,1.36-5.44Z"/>
      <path class="cls-2" d="M603.5,757.67c-1.58-.9-2.83-2.15-3.75-3.76-.92-1.61-1.38-3.42-1.38-5.43s.46-3.83,1.38-5.44c.92-1.61,2.17-2.86,3.75-3.76,1.58-.9,3.33-1.35,5.24-1.35s3.69,.45,5.27,1.35c1.58,.9,2.82,2.15,3.73,3.75s1.36,3.42,1.36,5.45-.45,3.85-1.36,5.45c-.91,1.6-2.15,2.85-3.73,3.75-1.58,.9-3.34,1.35-5.27,1.35s-3.66-.45-5.24-1.35Zm9.14-2c1.16-.67,2.06-1.63,2.72-2.87,.66-1.24,.99-2.69,.99-4.32s-.33-3.11-.99-4.34c-.66-1.23-1.56-2.19-2.71-2.86-1.15-.67-2.45-1.01-3.91-1.01s-2.76,.34-3.91,1.01c-1.15,.67-2.05,1.62-2.71,2.86-.66,1.23-.99,2.68-.99,4.34s.33,3.08,.99,4.32c.66,1.24,1.57,2.2,2.72,2.87,1.16,.67,2.45,1.01,3.9,1.01s2.74-.33,3.89-1.01Z"/>
      <path class="cls-2" d="M644.82,758.81h-2.7l-10.84-16.44v16.44h-2.7v-20.67h2.7l10.84,16.41v-16.41h2.7v20.67Z"/>
      <path class="cls-2" d="M667.61,739.42c1.65,.84,2.91,2.04,3.79,3.6,.88,1.56,1.32,3.4,1.32,5.51s-.44,3.95-1.32,5.5-2.14,2.73-3.79,3.55c-1.65,.82-3.6,1.23-5.85,1.23h-6.43v-20.64h6.43c2.25,0,4.2,.42,5.85,1.26Zm.25,15.05c1.4-1.41,2.1-3.39,2.1-5.94s-.71-4.57-2.12-6.01c-1.41-1.44-3.44-2.16-6.09-2.16h-3.73v16.23h3.73c2.67,0,4.7-.71,6.1-2.12Z"/>
      <path class="cls-2" d="M684.9,738.17v20.64h-2.7v-20.64h2.7Z"/>
      <path class="cls-2" d="M695.77,743.04c.91-1.61,2.15-2.87,3.72-3.78,1.57-.91,3.31-1.36,5.23-1.36,2.25,0,4.22,.54,5.89,1.63,1.68,1.09,2.9,2.63,3.67,4.62h-3.23c-.57-1.24-1.4-2.2-2.47-2.87-1.08-.67-2.37-1.01-3.87-1.01s-2.74,.34-3.88,1.01c-1.15,.67-2.04,1.62-2.7,2.86-.65,1.23-.98,2.68-.98,4.34s.33,3.08,.98,4.31,1.55,2.19,2.7,2.86c1.14,.67,2.44,1.01,3.88,1.01s2.79-.33,3.87-.99c1.08-.66,1.9-1.61,2.47-2.86h3.23c-.77,1.97-2,3.5-3.67,4.58-1.68,1.08-3.64,1.61-5.89,1.61-1.92,0-3.66-.45-5.23-1.35-1.57-.9-2.81-2.15-3.72-3.75s-1.36-3.41-1.36-5.42,.45-3.83,1.36-5.44Z"/>
      <path class="cls-2" d="M726.9,738.17v20.64h-2.7v-20.64h2.7Z"/>
      <path class="cls-2" d="M741.53,757.67c-1.58-.9-2.83-2.15-3.75-3.76-.92-1.61-1.38-3.42-1.38-5.43s.46-3.83,1.38-5.44c.92-1.61,2.17-2.86,3.75-3.76,1.58-.9,3.33-1.35,5.24-1.35s3.69,.45,5.27,1.35c1.58,.9,2.82,2.15,3.73,3.75s1.36,3.42,1.36,5.45-.45,3.85-1.36,5.45c-.91,1.6-2.15,2.85-3.73,3.75-1.58,.9-3.34,1.35-5.27,1.35s-3.66-.45-5.24-1.35Zm9.14-2c1.16-.67,2.06-1.63,2.72-2.87,.66-1.24,.99-2.69,.99-4.32s-.33-3.11-.99-4.34c-.66-1.23-1.56-2.19-2.71-2.86-1.15-.67-2.45-1.01-3.91-1.01s-2.76,.34-3.91,1.01c-1.15,.67-2.05,1.62-2.71,2.86-.66,1.23-.99,2.68-.99,4.34s.33,3.08,.99,4.32c.66,1.24,1.57,2.2,2.72,2.87,1.16,.67,2.45,1.01,3.9,1.01s2.74-.33,3.89-1.01Z"/>
      <path class="cls-2" d="M782.85,758.81h-2.7l-10.84-16.44v16.44h-2.7v-20.67h2.7l10.84,16.41v-16.41h2.7v20.67Z"/>
      <path class="cls-2" d="M796.06,738.17v20.64h-2.7v-20.64h2.7Z"/>
      <path class="cls-2" d="M822.8,758.81h-2.7l-10.84-16.44v16.44h-2.7v-20.67h2.7l10.84,16.41v-16.41h2.7v20.67Z"/>
      <path class="cls-2" d="M848.96,744.15c-.57-1.2-1.4-2.14-2.49-2.8-1.09-.66-2.35-.99-3.79-.99s-2.74,.33-3.9,.99c-1.16,.66-2.06,1.61-2.72,2.84-.66,1.23-.99,2.66-.99,4.28s.33,3.04,.99,4.26c.66,1.22,1.57,2.17,2.72,2.83,1.16,.66,2.45,.99,3.9,.99,2.01,0,3.67-.6,4.98-1.81,1.3-1.2,2.06-2.83,2.28-4.89h-8.23v-2.19h11.11v2.07c-.16,1.7-.69,3.25-1.6,4.67-.91,1.41-2.1,2.53-3.58,3.35-1.48,.82-3.13,1.23-4.95,1.23-1.92,0-3.66-.45-5.24-1.35s-2.83-2.15-3.75-3.75c-.92-1.6-1.38-3.41-1.38-5.42s.46-3.83,1.38-5.44c.92-1.61,2.17-2.86,3.75-3.76,1.58-.9,3.33-1.35,5.24-1.35,2.19,0,4.13,.54,5.82,1.63,1.69,1.09,2.92,2.62,3.69,4.59h-3.23Z"/>
    </g>
    <g>
      <path class="cls-2" d="M313.91,680.08c-1.73,3.08-4.34,5.54-7.83,7.39-3.49,1.85-7.76,2.77-12.8,2.77h-8.54v20.94h-17.25v-62.03h25.78c4.98,0,9.22,.88,12.71,2.64,3.49,1.76,6.12,4.19,7.88,7.3,1.76,3.11,2.64,6.69,2.64,10.74,0,3.75-.87,7.17-2.6,10.25Zm-15-10.25c0-4.52-2.43-6.78-7.3-6.78h-6.86v13.46h6.86c4.87,0,7.3-2.23,7.3-6.69Z"/>
      <path class="cls-2" d="M372.46,711.19l-12.32-22.88h-1.85v22.88h-17.25v-62.03h27.19c4.99,0,9.21,.87,12.67,2.6,3.46,1.73,6.07,4.11,7.83,7.13,1.76,3.02,2.64,6.41,2.64,10.16,0,4.22-1.16,7.93-3.48,11.13-2.32,3.2-5.71,5.47-10.16,6.82l13.99,24.2h-19.27Zm-14.17-34.67h8.54c2.35,0,4.11-.56,5.28-1.67,1.17-1.11,1.76-2.73,1.76-4.84,0-1.99-.6-3.56-1.8-4.71-1.2-1.14-2.95-1.72-5.24-1.72h-8.54v12.93Z"/>
      <path class="cls-2" d="M430.54,707.71c-4.87-2.73-8.73-6.51-11.57-11.35-2.85-4.84-4.27-10.31-4.27-16.41s1.42-11.57,4.27-16.41c2.84-4.84,6.7-8.61,11.57-11.31,4.87-2.7,10.21-4.05,16.01-4.05s11.22,1.35,16.06,4.05c4.84,2.7,8.67,6.47,11.48,11.31,2.82,4.84,4.22,10.31,4.22,16.41s-1.41,11.57-4.22,16.41c-2.82,4.84-6.66,8.62-11.53,11.35-4.87,2.73-10.21,4.09-16.01,4.09s-11.15-1.36-16.01-4.09Zm26.44-16.23c2.55-2.87,3.83-6.72,3.83-11.53s-1.28-8.81-3.83-11.66c-2.55-2.84-6.03-4.27-10.43-4.27s-7.95,1.42-10.47,4.27c-2.52,2.85-3.78,6.73-3.78,11.66s1.26,8.73,3.78,11.57c2.52,2.85,6.01,4.27,10.47,4.27s7.88-1.44,10.43-4.31Z"/>
      <path class="cls-2" d="M559.18,649.15v62.03h-17.25v-24.9h-21.03v24.9h-17.25v-62.03h17.25v23.32h21.03v-23.32h17.25Z"/>
      <path class="cls-2" d="M647,649.15l-21.38,62.03h-22.09l-21.47-62.03h18.48l14.08,44.79,13.99-44.79h18.39Z"/>
      <path class="cls-2" d="M709.21,701.07h-22l-3.34,10.12h-18.13l22.61-62.03h19.89l22.53,62.03h-18.21l-3.34-10.12Zm-4.31-13.2l-6.69-20.06-6.6,20.06h13.29Z"/>
      <path class="cls-2" d="M755.71,663.72c2.55-4.78,6.17-8.5,10.87-11.17,4.69-2.67,10.09-4,16.19-4,7.74,0,14.25,2.07,19.53,6.2s8.68,9.75,10.21,16.85h-18.57c-1.12-2.35-2.66-4.14-4.62-5.37-1.97-1.23-4.24-1.85-6.82-1.85-3.99,0-7.17,1.42-9.55,4.27-2.38,2.85-3.56,6.64-3.56,11.39s1.19,8.64,3.56,11.48c2.38,2.85,5.56,4.27,9.55,4.27,2.58,0,4.85-.62,6.82-1.85,1.96-1.23,3.5-3.02,4.62-5.37h18.57c-1.53,7.1-4.93,12.71-10.21,16.85s-11.79,6.2-19.53,6.2c-6.1,0-11.5-1.33-16.19-4-4.69-2.67-8.32-6.39-10.87-11.17s-3.83-10.25-3.83-16.41,1.28-11.54,3.83-16.32Z"/>
    </g>
  </g>
  <g>
    <path class="cls-1" d="M480.42,388.91l2.06-15.5c-49.06-6.54-94.3,28.06-100.83,77.12-6.54,49.06,28.06,94.3,77.13,100.83l2.06-15.5c-40.52-5.4-69.09-42.75-63.69-83.27s42.75-69.08,83.27-63.68Z"/>
    <path class="cls-1" d="M364.11,364.47l23.92,26.18c1.65,1.8,3.8,2.86,6.05,3.16,2.82,.38,5.79-.45,8.06-2.53,4.07-3.72,4.36-10.04,.64-14.11l-23.92-26.18c-3.72-4.07-10.04-4.36-14.11-.64-4.07,3.72-4.36,10.04-.64,14.11Z"/>
    <path class="cls-1" d="M372.41,449.79c.78-5.88-3.35-11.29-9.24-12.07l-37.83-5.04c-5.88-.78-11.29,3.35-12.07,9.24s3.35,11.29,9.23,12.07l37.83,5.04c5.88,.78,11.29-3.35,12.07-9.24Z"/>
    <path class="cls-1" d="M395.62,526.91c-3.74-4.1-10.09-4.38-14.18-.64l-26.32,24.04c-4.09,3.74-4.38,10.09-.64,14.18,1.66,1.81,3.82,2.88,6.08,3.18,2.84,.38,5.82-.45,8.1-2.54l26.32-24.04c4.09-3.74,4.38-10.09,.64-14.18Z"/>
    <path class="cls-1" d="M433.76,363.16c.86,3.62,3.86,6.18,7.34,6.64,1.02,.14,2.09,.09,3.16-.16,4.69-1.11,7.59-5.81,6.48-10.5l-2.79-11.83c-1.11-4.69-5.8-7.59-10.49-6.48-4.69,1.11-7.59,5.81-6.48,10.5l2.79,11.83Z"/>
    <path class="cls-1" d="M356.93,416.64l11.96,6.02c.99,.5,2.01,.81,3.05,.94,3.94,.53,7.96-1.45,9.85-5.21,2.38-4.74,.48-10.51-4.26-12.9l-11.96-6.02c-4.74-2.39-10.52-.48-12.9,4.26-2.38,4.74-.48,10.51,4.26,12.9Z"/>
    <path class="cls-1" d="M373.74,485.83c-1.32-5.58-6.91-9.03-12.48-7.71l-14.07,3.32c-5.58,1.32-9.03,6.91-7.71,12.49,1.02,4.31,4.59,7.35,8.73,7.9,1.22,.16,2.49,.11,3.75-.19l14.07-3.32c5.58-1.32,9.03-6.91,7.71-12.48Z"/>
    <path class="cls-1" d="M423.02,547.26c-4.53-2.28-10.05-.45-12.33,4.08l-5.75,11.43c-2.28,4.53-.45,10.05,4.08,12.33,.94,.47,1.93,.77,2.91,.9,3.77,.5,7.61-1.39,9.42-4.98l5.75-11.43c2.28-4.53,.45-10.05-4.08-12.33Z"/>
  </g>
</svg>